HIERARCHY
ROOT SpineBase
{
  OFFSET 0.000000 0.000000 0.000000
  CHANNELS 6 Xposition Yposition Zposition Zrotation Xrotation Yrotation
  JOINT SpineMid
  {
    OFFSET -0.000000 35.831512 0.000000
    CHANNELS 3 Zrotation Xrotation Yrotation
    JOINT SpineShoulder
    {
      OFFSET 0.114529 26.594613 -1.010680
      CHANNELS 3 Zrotation Xrotation Yrotation
      JOINT Neck
      {
        OFFSET 0.077982 8.788769 -0.735112
        CHANNELS 3 Zrotation Xrotation Yrotation
        JOINT Head
        {
          OFFSET -0.325943 12.781553 6.380532
          CHANNELS 3 Zrotation Xrotation Yrotation
          End Site
          {
            OFFSET 0 0 0
          }
        }
      }
      JOINT ShoulderLeft
      {
        OFFSET -14.051096 -7.699506 -6.438186
        CHANNELS 3 Zrotation Xrotation Yrotation
        JOINT ElbowLeft
        {
          OFFSET -8.226908 -23.575818 3.489020
          CHANNELS 3 Zrotation Xrotation Yrotation
          JOINT WristLeft
          {
            OFFSET -0.133581 -23.753814 4.156908
            CHANNELS 3 Zrotation Xrotation Yrotation
            JOINT HandLeft
            {
              OFFSET 1.596129 -11.113621 -0.491127
              CHANNELS 3 Zrotation Xrotation Yrotation
              JOINT HandTipLeft
              {
                OFFSET -0.550714 -5.725991 1.062032
                CHANNELS 3 Zrotation Xrotation Yrotation
                End Site
                {
                  OFFSET 0 0 0
                }
              }
              JOINT ThumbLeft
              {
                OFFSET 1.105992 2.478960 -3.971556
                CHANNELS 3 Zrotation Xrotation Yrotation
                End Site
                {
                  OFFSET 0 0 0
                }
              }
            }
          }
        }
      }
      JOINT ShoulderRight
      {
        OFFSET 15.018970 -8.154342 -7.989122
        CHANNELS 3 Zrotation Xrotation Yrotation
        JOINT ElbowRight
        {
          OFFSET 5.362569 -29.137413 2.054504
          CHANNELS 3 Zrotation Xrotation Yrotation
          JOINT WristRight
          {
            OFFSET 2.824737 -21.995279 8.674447
            CHANNELS 3 Zrotation Xrotation Yrotation
            JOINT HandRight
            {
              OFFSET -0.775233 -4.363188 0.645021
              CHANNELS 3 Zrotation Xrotation Yrotation
              JOINT HandTipRight
              {
                OFFSET 1.503795 -8.796319 2.559296
                CHANNELS 3 Zrotation Xrotation Yrotation
                End Site
                {
                  OFFSET 0 0 0
                }
              }
              JOINT ThumbRight
              {
                OFFSET 2.437764 6.102783 -2.084609
                CHANNELS 3 Zrotation Xrotation Yrotation
                End Site
                {
                  OFFSET 0 0 0
                }
              }
            }
          }
        }
      }
    }
  }
  JOINT HipLeft
  {
    OFFSET -5.728022 1.620470 -3.300626
    CHANNELS 3 Zrotation Xrotation Yrotation
    JOINT KneeLeft
    {
      OFFSET -6.858180 -40.499637 2.086625
      CHANNELS 3 Zrotation Xrotation Yrotation
      JOINT AnkleLeft
      {
        OFFSET -1.435992 -32.506849 -3.239943
        CHANNELS 3 Zrotation Xrotation Yrotation
        JOINT FootLeft
        {
          OFFSET 0.093338 -2.910847 -13.859184
          CHANNELS 3 Zrotation Xrotation Yrotation
          End Site
          {
            OFFSET 0 0 0
          }
        }
      }
    }
  }
  JOINT HipRight
  {
    OFFSET 6.452438 1.752862 -4.229253
    CHANNELS 3 Zrotation Xrotation Yrotation
    JOINT KneeRight
    {
      OFFSET 0.188771 -37.782045 0.648056
      CHANNELS 3 Zrotation Xrotation Yrotation
      JOINT AnkleRight
      {
        OFFSET 1.154975 -34.055993 -5.433126
        CHANNELS 3 Zrotation Xrotation Yrotation
        JOINT FootRight
        {
          OFFSET -0.199085 -2.876200 -13.864808
          CHANNELS 3 Zrotation Xrotation Yrotation
          End Site
          {
            OFFSET 0 0 0
          }
        }
      }
    }
  }
}
MOTION
Frames: 10
Frame Time: 0.033333
-22.506780 78.888778 238.045791 0.000000 0.000000 4.359741 -0.000000 0.000000 -4.359741 -0.000000 0.000000 0.000000 -0.000000 0.000000 0.000000 0.000000 0.000000 0.000000 -0.000000 0.000000 0.000000 -0.000000 0.000000 0.000000 -0.000000 0.000000 0.000000 -0.000000 0.000000 0.000000 0.000000 0.000000 0.000000 0.000000 0.000000 0.000000 -0.000000 0.000000 0.000000 -0.000000 0.000000 0.000000 -0.000000 0.000000 0.000000 -0.000000 0.000000 0.000000 0.000000 0.000000 0.000000 0.000000 0.000000 0.000000 -0.000000 0.000000 -4.359741 -0.000000 0.000000 0.000000 -0.000000 0.000000 0.000000 0.000000 0.000000 0.000000 -0.000000 0.000000 -4.359741 -0.000000 0.000000 0.000000 -0.000000 0.000000 0.000000 0.000000 0.000000 0.000000
-22.458151 78.869208 237.935761 -0.024268 0.037357 4.595974 0.021196 -0.039182 -4.595958 -0.000000 0.000000 0.000000 -0.000000 0.000000 0.000000 0.000000 0.000000 0.000000 -0.000000 0.000000 0.000000 -0.000000 0.000000 0.000000 -0.000000 0.000000 0.000000 -0.000000 0.000000 0.000000 0.000000 0.000000 0.000000 0.000000 0.000000 0.000000 -0.000000 0.000000 0.000000 -0.000000 0.000000 0.000000 -1.631706 -1.175140 -0.048971 1.631045 1.176058 0.015495 0.000000 0.000000 0.000000 0.000000 0.000000 0.000000 0.021196 -0.039182 -4.595958 -0.000000 0.000000 0.000000 -0.000000 0.000000 0.000000 0.000000 0.000000 0.000000 0.021196 -0.039182 -4.595958 -0.000000 0.000000 0.000000 -0.000000 0.000000 0.000000 0.000000 0.000000 0.000000
-22.418251 78.855078 237.828734 -0.041594 0.071708 4.777068 0.035477 -0.074923 -4.777019 -0.000000 0.000000 0.000000 -0.000000 0.000000 0.000000 0.000000 0.000000 0.000000 -0.000000 0.000000 0.000000 -0.000000 0.000000 0.000000 -1.203514 0.838282 0.182603 0.442176 -0.337865 -0.362092 0.000000 0.000000 0.000000 0.000000 0.000000 0.000000 -0.000000 0.000000 0.000000 -0.000000 0.000000 0.000000 -2.686266 -2.077997 -0.076145 2.685272 2.079282 -0.021321 0.000000 0.000000 0.000000 0.000000 0.000000 0.000000 0.035477 -0.074923 -4.777019 -0.000000 0.000000 0.000000 -0.000000 0.000000 0.000000 0.000000 0.000000 0.000000 0.923195 0.055775 -4.760864 -1.864801 -0.709254 0.115598 0.992039 0.503232 -0.145414 0.000000 0.000000 0.000000
-22.387079 78.846388 237.724711 -0.051975 0.103050 4.903086 0.042977 -0.107115 -4.903000 -0.000000 0.000000 0.000000 -0.000000 0.000000 0.000000 0.000000 0.000000 0.000000 -0.000000 0.000000 0.000000 -0.000000 0.000000 0.000000 -1.725229 1.118554 0.254179 0.768989 -0.505371 -0.470263 0.000000 0.000000 0.000000 0.000000 0.000000 0.000000 -0.000000 0.000000 0.000000 -0.000000 0.000000 0.000000 -3.279867 -2.767502 -0.071817 3.183209 1.824051 -0.271412 0.000000 0.000000 0.000000 0.000000 0.000000 0.000000 0.042977 -0.107115 -4.903000 -0.000000 0.000000 0.000000 -0.000000 0.000000 0.000000 0.000000 0.000000 0.000000 1.265437 0.064879 -4.880531 -2.565536 -0.997544 0.152955 1.364147 0.718270 -0.201548 0.000000 0.000000 0.000000
-22.364636 78.843136 237.623690 -0.055410 0.131381 4.974075 0.043810 -0.135690 -4.973960 -0.000000 0.000000 0.000000 -0.000000 0.000000 0.000000 0.000000 0.000000 0.000000 -0.000000 0.000000 0.000000 -0.000000 0.000000 0.000000 -2.186719 1.302142 0.309211 1.154112 -0.665133 -0.529837 0.000000 0.000000 0.000000 0.000000 0.000000 0.000000 0.481053 0.664057 0.153293 -0.482861 -0.662744 -0.158874 -3.496190 -3.286123 -0.032985 3.188800 2.137491 -0.437571 0.000000 0.000000 0.000000 0.000000 0.000000 0.000000 0.043810 -0.135690 -4.973960 -0.000000 0.000000 0.000000 -0.000000 0.000000 0.000000 0.000000 0.000000 0.000000 1.527194 0.063465 -4.946338 -3.110429 -1.240849 0.179026 1.652757 0.908895 -0.245545 0.000000 0.000000 0.000000
-22.350921 78.845324 237.525673 -0.051898 0.156699 4.990064 0.038071 -0.160619 -4.989940 -0.000000 0.000000 0.000000 -0.000000 0.000000 0.000000 0.000000 0.000000 0.000000 -0.000000 0.000000 0.000000 -0.000000 0.000000 0.000000 -2.584097 1.387838 0.345781 1.596354 -0.818340 -0.539925 0.000000 0.000000 0.000000 0.000000 0.000000 0.000000 0.485102 0.831927 0.183748 -0.487819 -0.830337 -0.190805 -3.396187 -3.664507 0.040028 2.773447 2.373963 -0.624951 0.000000 0.000000 0.000000 0.000000 0.000000 0.000000 0.038071 -0.160619 -4.989940 -0.000000 0.000000 0.000000 -0.000000 0.000000 0.000000 0.000000 0.000000 0.000000 1.707959 0.052485 -4.958360 -3.498725 -1.438776 0.195159 1.857453 1.075106 -0.276755 0.000000 0.000000 0.000000
-22.355061 78.859157 237.415190 -0.048526 0.200379 4.870274 0.031339 -0.203775 -4.870133 -0.000000 0.000000 0.000000 -0.000000 0.000000 0.000000 0.000000 0.000000 0.000000 -0.000000 0.000000 0.000000 -0.000000 0.000000 0.000000 -2.972790 1.735457 0.427004 2.961166 -1.755228 -0.336598 0.000000 0.000000 0.000000 0.000000 0.000000 0.000000 0.481539 1.067393 0.225895 -0.485828 -1.065448 -0.234898 -3.275760 -3.477968 0.033941 2.039956 2.617105 -0.673870 0.000000 0.000000 0.000000 0.000000 0.000000 0.000000 0.031339 -0.203775 -4.870133 -0.000000 0.000000 0.000000 -0.000000 0.000000 0.000000 0.000000 0.000000 0.000000 1.817830 0.027860 -4.835283 -3.751216 -1.662503 0.201031 1.995521 1.273147 -0.296681 0.000000 0.000000 0.000000
-22.364027 78.876272 237.316052 -0.035366 0.227032 4.726545 0.016539 -0.229175 -4.726442 -0.000000 0.000000 0.000000 -0.000000 0.000000 0.000000 0.000000 0.000000 0.000000 -0.000000 0.000000 0.000000 -0.000000 0.000000 0.000000 -3.521828 1.042606 0.338839 3.516205 -1.061436 -0.274204 0.000000 0.000000 0.000000 0.000000 0.000000 0.000000 0.402250 1.267989 0.257321 -0.408040 -1.266138 -0.266281 -2.380683 -4.057205 0.282317 0.574584 3.083211 -1.034081 0.000000 0.000000 0.000000 0.000000 0.000000 0.000000 0.016539 -0.229175 -4.726442 -0.000000 0.000000 0.000000 -0.000000 0.000000 0.000000 0.000000 0.000000 0.000000 1.924651 0.005067 -4.688469 -3.985101 -1.813096 0.206516 2.108215 1.414895 -0.313606 0.000000 0.000000 0.000000
-22.373699 78.892570 237.246792 -0.005462 0.230592 4.626505 -0.013156 -0.230282 -4.626521 -0.000000 0.000000 0.000000 -0.000000 0.000000 0.000000 0.000000 0.000000 0.000000 -0.000000 0.000000 0.000000 -0.000000 0.000000 0.000000 -3.544319 0.868855 0.309619 3.809651 -2.088501 -0.082139 0.000000 0.000000 0.000000 0.000000 0.000000 0.000000 0.238528 1.405869 0.272778 -0.245291 -1.404705 -0.278712 -1.135787 -4.929811 0.654320 -2.234282 4.118343 -1.623045 0.000000 0.000000 0.000000 0.000000 0.000000 0.000000 -0.013156 -0.230282 -4.626521 -0.000000 0.000000 0.000000 -0.000000 0.000000 0.000000 0.000000 0.000000 0.000000 1.682462 -0.058778 -4.591953 -3.544072 -1.727497 0.182205 1.872677 1.413924 -0.273250 0.000000 0.000000 0.000000
-22.374826 78.909150 237.188507 0.050941 0.205147 4.490946 -0.066849 -0.200529 -4.491154 -0.000000 0.000000 0.000000 -0.000000 0.000000 0.000000 0.000000 0.000000 0.000000 -0.000000 0.000000 0.000000 -0.000000 0.000000 0.000000 -3.341626 0.944592 0.312125 2.700048 -3.662524 -0.138531 0.000000 0.000000 0.000000 0.000000 0.000000 0.000000 -0.031046 1.473117 0.269601 0.024122 -1.473247 -0.268892 0.650915 -4.930206 0.995414 -4.178873 2.178883 -2.234414 0.000000 0.000000 0.000000 0.000000 0.000000 0.000000 -0.066849 -0.200529 -4.491154 -0.000000 0.000000 0.000000 -0.000000 0.000000 0.000000 0.000000 0.000000 0.000000 1.453963 -0.037510 -4.460801 -3.195112 -1.716447 0.161136 1.696122 1.430126 -0.242672 0.000000 0.000000 0.000000
